<svg width="138" height="37" viewBox="0 0 138 37" fill="none" xmlns="http://www.w3.org/2000/svg">
<path fill-rule="evenodd" clip-rule="evenodd" d="M20.7197 19.3584C22.6748 19.3586 24.2763 21.0426 24.2764 23.0869C24.2764 25.1313 22.6802 26.8174 20.7139 26.8174C20.24 26.8186 19.7714 26.7189 19.3389 26.5254L19.2383 26.4736L18.5156 26.0107L16.4541 24.2002L13.3516 21.4902L12.8506 21.1816C12.6439 21.0984 12.423 21.0552 12.2002 21.0537C11.1651 21.0537 10.3225 21.9716 10.3223 23.0977C10.3223 24.224 11.165 25.1426 12.2002 25.1426C12.2984 25.1423 12.3964 25.1332 12.4932 25.1162C12.6153 25.0944 12.7354 25.0608 12.8506 25.0146L13.3594 24.7148L14.1025 24.0645C14.1474 24.0233 14.2067 24.001 14.2676 24.001C14.3283 24.001 14.3868 24.0235 14.4316 24.0645L15.2793 24.9141C15.2999 24.9378 15.3162 24.9653 15.3262 24.9951C15.3361 25.0249 15.3391 25.0565 15.3369 25.0879C15.3347 25.1193 15.3266 25.1506 15.3125 25.1787C15.2984 25.2067 15.2786 25.2314 15.2549 25.252L14.291 26.0938L13.5693 26.5254C13.3151 26.6363 13.0483 26.717 12.7754 26.7666C12.5828 26.8 12.3878 26.8174 12.1924 26.8174C10.2223 26.8174 8.62988 25.1295 8.62988 23.0869C8.6299 21.0444 10.2279 19.3584 12.1924 19.3584C12.6666 19.3573 13.1358 19.4563 13.5693 19.6484L13.6699 19.7021L14.3926 20.165L16.4521 21.9717L18.6211 20.0801L19.3438 19.6484C19.777 19.4571 20.2461 19.3582 20.7197 19.3584ZM20.7285 21.0498C20.6283 21.0501 20.5284 21.0592 20.4297 21.0762C20.3076 21.098 20.1874 21.1316 20.0723 21.1777L19.5635 21.4814L17.7305 23.0869L19.5674 24.6943L20.0693 25.0029C20.1828 25.0475 20.3001 25.0814 20.4199 25.1035L20.4238 25.1113C21.5946 25.325 22.6053 24.3305 22.6055 23.0947C22.6055 21.9684 21.7637 21.0498 20.7285 21.0498Z" fill="#616161"/>
<path d="M16.4648 9.30762C17.3 10.7506 18.2911 12.0983 19.4189 13.3262C21.3737 15.5415 18.4911 17.8736 16.7051 16.9443L17.7275 19.1113L16.4434 20.3164L15.1602 19.1113L16.2236 16.9443C14.4413 17.8736 11.5087 15.5417 13.4727 13.3301C14.5992 12.1003 15.5895 10.7512 16.4248 9.30762C16.4323 9.29511 16.4383 9.28181 16.4443 9.26855L16.4648 9.30762Z" fill="#616161"/>
<path fill-rule="evenodd" clip-rule="evenodd" d="M16.4473 0C17.8759 0 19.2788 0.381963 20.5107 1.10547L28.9434 6.05469C30.1424 6.76714 31.1373 7.77868 31.8301 8.98926C32.5226 10.1997 32.8898 11.5693 32.8965 12.9639V23.1191C32.8888 24.5146 32.5199 25.8844 31.8252 27.0947C31.1304 28.3051 30.1338 29.3149 28.9326 30.0254L20.5 34.9834C19.2715 35.7109 17.8701 36.096 16.4424 36.0986C15.0141 36.0963 13.6127 35.7111 12.3838 34.9834L3.95117 30.0254C2.75249 29.3134 1.75883 28.3029 1.06641 27.0928C0.37404 25.8826 0.00639122 24.5134 0 23.1191V12.9668C0.00627807 11.5722 0.373238 10.2029 1.06543 8.99219C1.75785 7.78127 2.75216 6.76948 3.95117 6.05664L12.3838 1.10547C13.6157 0.381889 15.0186 3.3258e-05 16.4473 0ZM16.4463 1.43652C15.2744 1.43657 14.1243 1.75197 13.1162 2.34961L4.68359 7.30762C3.70098 7.89166 2.88671 8.72056 2.31934 9.71289C1.75199 10.7053 1.45112 11.8276 1.44629 12.9707V23.1191C1.45071 24.2627 1.75105 25.3859 2.31836 26.3789C2.88571 27.3718 3.70066 28.2007 4.68359 28.7852L13.1162 33.7402C14.1261 34.3335 15.276 34.6465 16.4473 34.6465C17.6186 34.6465 18.7693 34.3335 19.7793 33.7402L28.2109 28.7832C29.1937 28.1989 30.0088 27.3705 30.5762 26.3779C31.1435 25.3853 31.4445 24.2624 31.4492 23.1191L31.4473 12.9707C31.4419 11.8277 31.1405 10.7052 30.5732 9.71289C30.0059 8.72074 29.1912 7.89204 28.209 7.30762L19.7773 2.34961C18.7692 1.75193 17.6183 1.43652 16.4463 1.43652Z" fill="#616161"/>
<path fill-rule="evenodd" clip-rule="evenodd" d="M72.1035 10.8057C72.8573 10.8032 73.6087 10.8889 74.3428 11.0605L74.7646 11.1396L79.0098 11.0078V13.8223L77.0322 13.6641C77.3966 14.1924 77.5991 14.8155 77.6143 15.457C77.6143 17.2152 77.1656 18.4281 76.2686 19.0947C75.3715 19.7613 73.9652 20.0933 72.0498 20.0908C71.6865 20.0948 71.3234 20.0597 70.9678 19.9854C70.8154 20.3387 70.7263 20.7164 70.7041 21.1006C70.6999 21.2358 70.7415 21.3688 70.8232 21.4766C70.9051 21.5844 71.0218 21.661 71.1533 21.6934C71.4507 21.8011 72.154 21.8628 73.2627 21.8789C75.4768 21.8975 76.9887 22.1925 77.7979 22.7637C78.6069 23.3348 79.0117 24.3755 79.0117 25.8857C79.0117 27.3874 78.4322 28.4996 77.2725 29.2207C76.1128 29.9418 74.5438 30.3017 72.5664 30.3018C70.5839 30.3018 69.0623 30.0376 68.0029 29.5098C66.9439 28.9819 66.4129 28.0242 66.4092 26.6367C66.4092 25.529 67.0416 24.4838 68.3066 23.5C67.6561 23.0601 67.3308 22.3912 67.332 21.4941C67.332 21.1448 67.5956 20.565 68.1221 19.7549L68.3604 19.3828C67.1634 18.5155 66.5652 17.245 66.5664 15.5723C66.5677 13.8999 67.0735 12.6829 68.083 11.9209C69.0941 11.1775 70.4345 10.8057 72.1035 10.8057ZM70.6143 24.7539C70.1256 25.2389 69.8956 25.7408 69.8955 26.2666L69.8896 26.2578C69.8898 27.0135 70.8193 27.3916 72.6777 27.3916C74.5363 27.3916 75.4658 26.9517 75.4658 26.0732C75.4657 25.5989 75.3071 25.2963 74.9912 25.165C74.6752 25.0332 74.0064 24.9562 72.9883 24.9395L70.6143 24.7539ZM72.1182 13.5225C70.7738 13.5212 70.1008 14.171 70.0996 15.4707L70.1074 15.6963C70.1863 16.833 70.8567 17.4006 72.1182 17.3994C73.4638 17.3982 74.136 16.752 74.1348 15.4609C74.1347 14.17 73.4624 13.5237 72.1182 13.5225Z" fill="#616161"/>
<path d="M119.559 10.7705C120.596 10.7705 122.011 10.9379 123.804 11.2725L124.673 11.4307L124.629 14.3506C122.453 14.0706 120.928 13.9297 120.053 13.9297C119.183 13.9297 118.62 14.0081 118.365 14.168C118.24 14.2458 118.139 14.3564 118.072 14.4873C118.005 14.6181 117.975 14.7645 117.984 14.9111C117.976 15.0715 118.022 15.2305 118.115 15.3613C118.208 15.4921 118.343 15.5878 118.497 15.6328C118.84 15.7666 119.72 15.9601 121.135 16.2129C122.55 16.4657 123.556 16.8811 124.153 17.4609C124.752 18.0407 125.051 18.9815 125.051 20.2822C125.051 23.132 123.284 24.5576 119.75 24.5576C118.332 24.5301 116.92 24.3708 115.531 24.083L114.688 23.9199L114.793 20.9668C116.974 21.2493 118.488 21.3906 119.334 21.3906C120.18 21.3906 120.761 21.3069 121.075 21.1396C121.215 21.0726 121.332 20.9667 121.414 20.835C121.496 20.7034 121.538 20.5513 121.536 20.3965C121.54 20.2376 121.495 20.081 121.407 19.9482C121.32 19.8155 121.194 19.7122 121.047 19.6523C120.722 19.495 119.878 19.3024 118.516 19.0732C117.153 18.844 116.138 18.4569 115.472 17.9131C114.803 17.3692 114.469 16.3978 114.47 14.999C114.471 13.6001 114.946 12.5464 115.894 11.8389C116.841 11.1265 118.063 10.7705 119.559 10.7705Z" fill="#616161"/>
<path d="M132.011 10.7705C133.048 10.7705 134.463 10.9379 136.256 11.2725L137.126 11.4307L137.074 14.3506C134.892 14.0706 133.367 13.9297 132.498 13.9297C131.628 13.9297 131.065 14.0082 130.811 14.168C130.686 14.2458 130.584 14.3564 130.517 14.4873C130.45 14.6181 130.42 14.7646 130.43 14.9111C130.422 15.0715 130.467 15.2305 130.561 15.3613C130.654 15.4921 130.788 15.5879 130.942 15.6328C131.287 15.7666 132.166 15.9602 133.58 16.2129C134.993 16.4656 136.002 16.8812 136.605 17.4609C137.204 18.0407 137.503 18.9815 137.503 20.2822C137.503 23.132 135.736 24.5576 132.202 24.5576C130.784 24.5301 129.372 24.3708 127.983 24.083L127.147 23.9199L127.253 20.9668C129.427 21.2493 130.941 21.3906 131.794 21.3906C132.646 21.3906 133.227 21.3069 133.535 21.1396C133.675 21.0726 133.792 20.9667 133.874 20.835C133.956 20.7034 133.998 20.5513 133.996 20.3965C134 20.2376 133.954 20.081 133.867 19.9482C133.78 19.8155 133.654 19.7122 133.507 19.6523C133.182 19.495 132.338 19.3024 130.976 19.0732C129.613 18.844 128.598 18.4569 127.932 17.9131C127.263 17.3692 126.928 16.3978 126.93 14.999C126.931 13.6001 127.406 12.5464 128.354 11.8389C129.296 11.1266 130.515 10.7706 132.011 10.7705Z" fill="#616161"/>
<path fill-rule="evenodd" clip-rule="evenodd" d="M63.7969 24.2373H60.292V23.6797C59.0616 24.262 57.9977 24.553 57.1006 24.5518C55.1839 24.5517 53.8483 23.998 53.0938 22.8916C52.3393 21.7851 51.9612 20.0317 51.96 17.6318C51.96 15.2335 52.4121 13.4848 53.3164 12.3857C54.2209 11.2867 55.5882 10.7373 57.417 10.7373C58.2051 10.762 58.9898 10.8501 59.7637 11.001L60.2637 11.1064V5.78027H63.7969V24.2373ZM57.6826 13.7959C56.259 13.7959 55.5469 15.0616 55.5469 17.5928C55.5469 18.9643 55.7046 19.9406 56.0205 20.5205C56.3365 21.1004 56.8593 21.3904 57.5879 21.3916C58.3677 21.3845 59.1438 21.2781 59.8965 21.0742H59.8945L60.2656 20.9941V14.0596C59.4142 13.8948 58.5497 13.8067 57.6826 13.7959Z" fill="#616161"/>
<path fill-rule="evenodd" clip-rule="evenodd" d="M44.3115 10.7412C48.1439 10.7412 50.0605 12.7269 50.0605 16.6992L49.7969 19.1523H42.0449C42.0635 19.9602 42.2788 20.5433 42.6914 20.9014C43.1077 21.2619 43.7004 21.4423 44.4697 21.4424C46.1052 21.4424 47.565 21.3895 48.8486 21.2842L49.5918 21.2041L49.6367 23.8066C47.8445 24.2709 46.0035 24.5202 44.1523 24.5498C42.17 24.5498 40.7287 24.023 39.8291 22.9688C38.9296 21.9143 38.4816 20.2021 38.4854 17.833C38.4854 13.105 40.4274 10.7414 44.3115 10.7412ZM44.3252 13.6387C43.4889 13.6387 42.9003 13.8533 42.5596 14.2832C42.2188 14.7132 42.0377 15.439 42.0166 16.46H46.5791C46.5791 15.4043 46.4124 14.6694 46.0791 14.2568C45.7458 13.8445 45.1612 13.6387 44.3252 13.6387Z" fill="#616161"/>
<path fill-rule="evenodd" clip-rule="evenodd" d="M86.3164 10.7412C90.1485 10.7414 92.0644 12.727 92.0645 16.6992L91.8008 19.1523H84.0488C84.0662 19.9602 84.2815 20.5433 84.6953 20.9014C85.1079 21.2619 85.7006 21.4423 86.4736 21.4424C88.1091 21.4424 89.5682 21.3895 90.8506 21.2842L91.5947 21.2041L91.6406 23.8066C89.8484 24.2709 88.0074 24.5202 86.1562 24.5498C84.1739 24.5498 82.7319 24.0231 81.8311 22.9688C80.9303 21.9143 80.4831 20.2021 80.4893 17.833C80.4893 13.1048 82.432 10.7412 86.3164 10.7412ZM86.3291 13.6387C85.4928 13.6387 84.9042 13.8533 84.5635 14.2832C84.2227 14.7132 84.0416 15.439 84.0205 16.46H88.583C88.583 15.4043 88.4163 14.6694 88.083 14.2568C87.7497 13.8445 87.1651 13.6387 86.3291 13.6387Z" fill="#616161"/>
<path fill-rule="evenodd" clip-rule="evenodd" d="M106.883 10.7412C110.714 10.7375 112.63 12.7212 112.63 16.6934L112.365 19.1475H104.615C104.63 19.9576 104.846 20.5421 105.261 20.9014C105.673 21.2618 106.267 21.4424 107.041 21.4424C108.676 21.4424 110.136 21.3895 111.418 21.2842L112.161 21.2041L112.21 23.8066C110.418 24.2709 108.576 24.5202 106.725 24.5498C104.743 24.5498 103.301 24.0228 102.4 22.9688C101.5 21.9143 101.052 20.2021 101.057 17.833C101.057 13.1048 102.998 10.7412 106.883 10.7412ZM106.896 13.6387C106.059 13.6387 105.47 13.8533 105.128 14.2832C104.786 14.7132 104.606 15.4392 104.589 16.46H109.15C109.15 15.4043 108.983 14.6694 108.648 14.2568C108.314 13.8444 107.729 13.6387 106.896 13.6387Z" fill="#616161"/>
<path d="M98.2852 24.2373H94.7539V5.78027H98.2852V24.2373Z" fill="#616161"/>
</svg>
