<svg width="145" height="32" viewBox="0 0 145 32" fill="none" xmlns="http://www.w3.org/2000/svg">
<path fill-rule="evenodd" clip-rule="evenodd" d="M127.405 10.1663C129.403 9.21143 131.521 8.93193 133.711 9.01983C135.405 9.09179 137.043 9.37121 138.594 10.0784C141.71 11.505 143.553 13.9392 144.216 17.2757H144.224C144.551 18.9218 144.519 20.5759 144.216 22.306H128.368C128.712 23.9403 129.703 24.9917 131.149 25.5071C134.01 26.5299 136.739 26.0665 139.309 24.5003C139.444 24.4164 139.576 24.3202 139.744 24.2044C140.923 25.4711 142.086 26.722 143.341 28.0726C142.574 28.612 141.87 29.1954 141.091 29.639C138.849 30.9135 136.432 31.5207 133.843 31.5247C131.705 31.5287 129.635 31.2851 127.661 30.4222C124.221 28.9157 122.19 26.3098 121.579 22.6136C121.204 20.3481 121.307 18.0985 122.122 15.9368C123.105 13.3275 124.872 11.3811 127.405 10.1663ZM136.204 15.2093C134.35 14.0825 132.404 14.0825 130.502 15.0374C129.203 15.6887 128.532 16.8439 128.42 18.3304H137.902C137.85 16.9758 137.295 15.8726 136.204 15.2093Z" fill="#948F89"/>
<path fill-rule="evenodd" clip-rule="evenodd" d="M110.431 0.10089C110.846 0.096935 110.962 0.22551 110.962 0.637022C110.954 10.5667 110.954 20.4925 110.954 30.4222V30.9612H110.347C108.565 30.9612 106.782 30.938 105.004 30.9739C104.481 30.9859 104.345 30.8177 104.381 30.3265C104.421 29.7551 104.389 29.1755 104.389 28.5042C104.237 28.6121 104.157 28.6522 104.097 28.7161C101.599 31.3331 98.5388 32.0127 95.1387 31.1458C90.7792 30.031 87.7023 26.4101 87.1309 21.9427C86.6594 18.2465 87.5424 14.9578 90.0518 12.1487C92.8809 8.9842 97.712 7.91332 101.544 9.70343C102.427 10.115 103.158 10.8465 103.953 11.4378C104.069 11.5257 104.157 11.6494 104.261 11.7532C104.301 11.7412 104.345 11.7291 104.385 11.7171V11.138C104.385 7.6456 104.393 4.15286 104.377 0.66046C104.373 0.225171 104.489 0.0889936 104.933 0.0969834C106.763 0.120952 108.593 0.116961 110.423 0.0969834L110.431 0.10089ZM99.0664 14.4505C95.9137 14.4345 93.5041 16.8885 93.4961 20.1292C93.4883 23.3856 95.858 25.8391 99.0186 25.8431H99.0225C102.199 25.847 104.584 23.4254 104.601 20.181C104.613 16.9564 102.211 14.4666 99.0664 14.4505Z" fill="#948F89"/>
<path fill-rule="evenodd" clip-rule="evenodd" d="M37.4053 9.7669C44.1943 6.91784 52.0425 10.6862 53.501 17.9827C53.6448 18.6939 53.6652 19.4294 53.7451 20.1566C53.713 26.2382 48.9812 30.9855 43.0234 31.429C39.1556 31.7166 35.8269 30.4496 33.2217 27.5687C30.8762 24.9794 29.9936 21.8666 30.541 18.4183C31.1963 14.2746 33.5774 11.3733 37.4014 9.7669H37.4053ZM42.1045 14.4505C38.9319 14.4387 36.4941 16.9201 36.4941 20.1526C36.4983 23.3971 38.8762 25.8302 42.0488 25.8382C45.2095 25.8462 47.563 23.449 47.5791 20.2044C47.5951 16.9278 45.2493 14.4625 42.1045 14.4505Z" fill="#948F89"/>
<path d="M72.2217 9.45538C72.5372 9.44741 72.6772 9.54745 72.7891 9.85089C74.3075 13.9786 75.8416 18.107 77.376 22.2308C77.4199 22.3506 77.48 22.4666 77.5918 22.7103C77.6917 22.3626 77.7643 22.1343 77.8242 21.9066C78.8951 17.8828 79.9582 13.8551 81.041 9.83136C81.081 9.68751 81.2765 9.4798 81.4004 9.4798H81.3926C83.7021 9.45982 86.0115 9.46319 88.377 9.46319C87.8655 10.9894 87.3704 12.4683 86.875 13.9466C85.021 19.4888 83.1624 25.0313 81.3203 30.5775C81.2085 30.913 81.0726 31.0452 80.7012 31.0413C78.8391 31.0213 76.9724 31.0213 75.1104 31.0413C74.7471 31.0452 74.607 30.9216 74.4912 30.5823C73.1766 26.7862 71.8384 22.9975 70.5078 19.2054C70.4798 19.1295 70.4391 19.0575 70.3672 18.9017C70.2913 19.0655 70.2353 19.1659 70.1953 19.2737C68.8767 23.0337 67.5547 26.7939 66.2441 30.5579C66.1243 30.8975 65.9881 31.0491 65.5928 31.0452C63.7307 31.0252 61.864 31.0292 60.002 31.0452C59.6506 31.0452 59.4791 30.9493 59.3633 30.598C57.0656 23.6771 54.752 16.7638 52.4424 9.85089C52.4065 9.74306 52.3905 9.63092 52.3506 9.46319H52.918C54.9476 9.4632 56.9772 9.47535 59.0068 9.45538C59.4223 9.45139 59.6186 9.55548 59.7305 9.97882C60.7974 14.0067 61.8839 18.0272 62.9668 22.0511C63.0147 22.2227 63.071 22.3902 63.2266 22.5618C63.4543 21.9505 63.6902 21.3392 63.918 20.7239C65.2606 17.1117 66.603 13.5033 67.9336 9.88702C68.0495 9.57938 68.1778 9.44743 68.5293 9.45538C69.76 9.47936 70.9909 9.47536 72.2217 9.45538Z" fill="#948F89"/>
<path d="M28.8545 31.0091H21.9453C21.9293 30.8853 21.9053 30.7771 21.9053 30.6692C21.9213 28.0761 21.961 25.4831 21.957 22.89C21.953 20.7601 20.3906 19.2291 18.2568 19.2171C16.1472 19.2091 14.0336 19.2093 11.9199 19.2093H11.2959V15.845C11.0883 16.0047 10.9804 16.0687 10.8926 16.1566C9.81371 17.2634 8.71878 18.3548 7.67188 19.4896C7.06076 20.1528 6.97292 21.0481 6.96094 21.8831C6.913 24.756 6.93262 27.6332 6.93262 30.5101V30.9857H0V0.0413193H6.89258V1.32745C6.89258 3.55715 6.93281 5.7873 6.88086 8.013C6.82891 10.1948 8.58718 11.7968 10.665 11.7689C12.7627 11.7409 14.8564 11.7649 16.9541 11.765H17.5615V15.054C17.7132 14.9822 17.7977 14.9622 17.8457 14.9144C18.8127 13.9554 19.7632 12.9795 20.7422 12.0325C21.5773 11.2214 21.8656 10.2028 21.8936 9.09601C21.9415 7.33382 21.9489 5.57108 21.9609 3.8089C21.9689 2.56638 21.9609 1.31987 21.9609 0.0374131H28.8545V31.0091Z" fill="#948F89"/>
<path d="M119.944 31.0091H113.499V9.41144H119.944V31.0091Z" fill="#948F89"/>
<path d="M112.979 3.44952C113.167 1.39172 115.002 -0.158739 117.071 0.012999V0.0169052C119.145 0.18872 120.731 2.03487 120.552 4.06866C120.364 6.19847 118.59 7.76099 116.556 7.58917C114.518 7.54904 112.776 5.67512 112.979 3.44952Z" fill="#948F89"/>
</svg>
